<?xml version="1.0" encoding="utf-8"?><svg xml:space="preserve" viewBox="0 0 100 100" y="0" x="0" xmlns="http://www.w3.org/2000/svg" id="Layer_1" version="1.1" width="200px" height="200px" xmlns:xlink="http://www.w3.org/1999/xlink" style="width:100%;height:100%;background-size:initial;background-repeat-y:initial;background-repeat-x:initial;background-position-y:initial;background-position-x:initial;background-origin:initial;background-color:initial;background-clip:initial;background-attachment:initial;animation-play-state:paused" ><g class="ldl-scale" style="transform-origin:50% 50%;transform:rotate(0deg) scale(0.8, 0.8);animation-play-state:paused" ><path fill="#f7b26a" d="M87.9 19.5H12.1c-1.1 0-2.1.9-2.1 2.1v4c0 3.9 2 7.6 5.4 9.7l30.7 19.1c2.4 1.5 5.4 1.5 7.8 0l30.7-19.1c3.3-2.1 5.4-5.7 5.4-9.7v-4c0-1.2-.9-2.1-2.1-2.1z" style="fill:rgb(200, 218, 244);animation-play-state:paused" ></path>
<path fill="#f4e6c8" d="M46.1 61.1L10 38.6v39.8c0 1.1.9 2.1 2.1 2.1H88c1.1 0 2.1-.9 2.1-2.1V38.6L53.9 61.1c-2.4 1.5-5.4 1.5-7.8 0z" style="fill:rgb(200, 218, 244);animation-play-state:paused" ></path>
<metadata xmlns:d="https://loading.io/stock/" style="animation-play-state:paused" ><d:name style="animation-play-state:paused" >mail</d:name>
<d:tags style="animation-play-state:paused" >email,envelope,packet,message,notification,information,letter,mail,web application</d:tags>
<d:license style="animation-play-state:paused" >by</d:license>
<d:slug style="animation-play-state:paused" >je0lta</d:slug></metadata></g><!-- generated by https://loading.io/ --></svg>