<?xml version="1.0" encoding="utf-8"?><svg viewBox="0 0 100 100" xmlns="http://www.w3.org/2000/svg" width="200px" height="200px" xmlns:xlink="http://www.w3.org/1999/xlink" style="width:100%;height:100%;background-size:initial;background-repeat-y:initial;background-repeat-x:initial;background-position-y:initial;background-position-x:initial;background-origin:initial;background-color:initial;background-clip:initial;background-attachment:initial;animation-play-state:paused" ><g class="ldl-scale" style="transform-origin:50% 50%;transform:rotate(0deg) scale(0.8, 0.8);animation-play-state:paused" ><g style="animation-play-state:paused" ><path fill="#c33736" d="M10.322 30.403l28.106 23.386h-6.364l15.724-15.724a4.5 4.5 0 0 1 6.364 0L86.707 70.62a4.5 4.5 0 0 1-6.364 6.364L47.789 44.428h6.364L38.428 60.153l-.278.278a4.125 4.125 0 0 1-6.086-.278L8.678 32.047a1.167 1.167 0 0 1 1.644-1.644z" style="fill:rgb(20, 39, 69);animation-play-state:paused" ></path></g>
<g style="animation-play-state:paused" ><path fill="#c33736" d="M78.5 73.801l2.667-19.918a3.363 3.363 0 0 1 6.667 0L90.5 73.801a6.052 6.052 0 0 1-5.197 6.803 6.052 6.052 0 0 1-6.803-6.803z" style="fill:rgb(20, 39, 69);animation-play-state:paused" ></path></g>
<g style="animation-play-state:paused" ><path fill="#c33736" d="M83.526 80.775l-19.918-2.667a3.363 3.363 0 0 1 0-6.667l19.918-2.667a6.053 6.053 0 1 1 0 12.001z" style="fill:rgb(20, 39, 69);animation-play-state:paused" ></path></g>
<metadata xmlns:d="https://loading.io/stock/" style="animation-play-state:paused" ><d:name style="animation-play-state:paused" >trend</d:name>


<d:tags style="animation-play-state:paused" >trend,revenue,profit,loss,earning,income,drop,lower,down,arrow</d:tags>


<d:license style="animation-play-state:paused" >by</d:license>


<d:slug style="animation-play-state:paused" >o4ga41</d:slug></metadata></g><!-- generated by https://loading.io/ --></svg>