<?xml version="1.0" encoding="utf-8"?><svg viewBox="0 0 100 100" xmlns="http://www.w3.org/2000/svg" width="200px" height="200px" xmlns:xlink="http://www.w3.org/1999/xlink" style="width:100%;height:100%;background-size:initial;background-repeat-y:initial;background-repeat-x:initial;background-position-y:initial;background-position-x:initial;background-origin:initial;background-color:initial;background-clip:initial;background-attachment:initial;animation-play-state:paused" ><g class="ldl-scale" style="transform-origin:50% 50%;transform:rotate(0deg) scale(0.8, 0.8);animation-play-state:paused" ><g style="animation-play-state:paused" ><path fill="#c33736" d="M8.678 73.953l23.386-28.106a4.123 4.123 0 0 1 6.08-.283l.283.284 15.724 15.724h-6.364l32.555-32.555a4.5 4.5 0 0 1 6.364 6.364L54.153 67.936a4.5 4.5 0 0 1-6.364 0L32.064 52.211h6.364L10.322 75.597a1.167 1.167 0 0 1-1.644-1.644z" style="fill:rgb(20, 39, 69);animation-play-state:paused" ></path></g>
<g style="animation-play-state:paused" ><path fill="#c33736" d="M90.5 32.199l-2.667 19.918a3.363 3.363 0 0 1-6.667 0L78.5 32.199a6.052 6.052 0 0 1 5.197-6.803 6.052 6.052 0 0 1 6.803 6.803z" style="fill:rgb(20, 39, 69);animation-play-state:paused" ></path></g>
<g style="animation-play-state:paused" ><path fill="#c33736" d="M83.526 37.225l-19.918-2.667a3.363 3.363 0 0 1 0-6.667l19.918-2.667a6.053 6.053 0 1 1 0 12.001z" style="fill:rgb(20, 39, 69);animation-play-state:paused" ></path></g>
<metadata xmlns:d="https://loading.io/stock/" style="animation-play-state:paused" ><d:name style="animation-play-state:paused" >trend</d:name>


<d:tags style="animation-play-state:paused" >trend,revenue,profit,earning,income,grow,up,arrow</d:tags>


<d:license style="animation-play-state:paused" >by</d:license>


<d:slug style="animation-play-state:paused" >lik62s</d:slug></metadata></g><!-- generated by https://loading.io/ --></svg>